<svg xmlns="http://www.w3.org/2000/svg" width="64" height="48" viewBox="0 0 32 24">
  <metadata><?xpacket begin="﻿" id="W5M0MpCehiHzreSzNTczkc9d"?>
<x:xmpmeta xmlns:x="adobe:ns:meta/" x:xmptk="Adobe XMP Core 5.6-c140 79.160451, 2017/05/06-01:08:21        ">
   <rdf:RDF xmlns:rdf="http://www.w3.org/1999/02/22-rdf-syntax-ns#">
      <rdf:Description rdf:about=""/>
   </rdf:RDF>
</x:xmpmeta>
                                                                                                    
                                                                                                    
                                                                                                    
                                                                                                    
                                                                                                    
                                                                                                    
                                                                                                    
                                                                                                    
                                                                                                    
                                                                                                    
                                                                                                    
                                                                                                    
                                                                                                    
                                                                                                    
                                                                                                    
                                                                                                    
                                                                                                    
                                                                                                    
                                                                                                    
                                                                                                    
                           
<?xpacket end="w"?></metadata>
<defs>
    <style>
      .cls-1 {
        fill: #51bab6;
        fill-rule: evenodd;
      }
    </style>
  </defs>
  <path id="Icon-mail" class="cls-1" d="M192.628,1363.1h0l0.018-.01c0.013-.01.023-0.03,0.036-0.04a0.4,0.4,0,0,0,.08-0.07,0.207,0.207,0,0,0,.047-0.05c0.018-.02.037-0.05,0.053-0.07s0.025-.05.037-0.07a0.788,0.788,0,0,0,.037-0.07c0.01-.03.016-0.05,0.024-0.08s0.016-.05.021-0.08a0.686,0.686,0,0,0,.009-0.09c0-.02.006-0.04,0.006-0.06v-6.58a0.833,0.833,0,0,0-.837-0.83H161.839a0.833,0.833,0,0,0-.837.83v22.34c0,0.01,0,.01,0,0.02,0,0.03.006,0.06,0.01,0.09s0,0.05.009,0.07a0.818,0.818,0,0,0,.025.08,0.644,0.644,0,0,0,.024.07,2.473,2.473,0,0,0,.079.14c0.014,0.02.031,0.04,0.046,0.06s0.039,0.05.061,0.07a0.094,0.094,0,0,1,.01.01,0.172,0.172,0,0,0,.053.04c0.021,0.02.041,0.03,0.063,0.05a0.279,0.279,0,0,0,.076.04l0.066,0.03,0.092,0.03c0.021,0.01.04,0.01,0.061,0.02a0.855,0.855,0,0,0,.16.01H192.16a0.866,0.866,0,0,0,.161-0.01c0.021-.01.04-0.01,0.061-0.02l0.092-.03,0.065-.03a0.253,0.253,0,0,0,.076-0.04c0.023-.02.043-0.03,0.064-0.05a0.185,0.185,0,0,0,.053-0.04,0.081,0.081,0,0,0,.009-0.01c0.022-.02.041-0.05,0.062-0.07s0.032-.04.046-0.06a0.287,0.287,0,0,0,.041-0.07,0.323,0.323,0,0,0,.038-0.07c0.01-.02.016-0.05,0.024-0.07a0.614,0.614,0,0,0,.025-0.08,0.559,0.559,0,0,0,.009-0.07c0-.03.009-0.06,0.01-0.09,0-.01,0-0.01,0-0.02v-12.16a0.838,0.838,0,0,0-1.675,0v10.06l-6.809-7.22Zm-1.3-6.44v5.32L177,1372.13l-14.323-10.15v-5.32h28.646Zm-28.646,7.36,6.81,4.83-6.81,7.22v-12.05Zm27.553,13.32H163.77l7.092-7.52,5.651,4.01a0.866,0.866,0,0,0,.974,0l5.651-4.01Z" transform="translate(-161 -1355)"/>
</svg>
