<svg xmlns="http://www.w3.org/2000/svg" width="64" height="64" viewBox="0 0 32 32">
  <metadata><?xpacket begin="﻿" id="W5M0MpCehiHzreSzNTczkc9d"?>
<x:xmpmeta xmlns:x="adobe:ns:meta/" x:xmptk="Adobe XMP Core 5.6-c140 79.160451, 2017/05/06-01:08:21        ">
   <rdf:RDF xmlns:rdf="http://www.w3.org/1999/02/22-rdf-syntax-ns#">
      <rdf:Description rdf:about=""/>
   </rdf:RDF>
</x:xmpmeta>
                                                                                                    
                                                                                                    
                                                                                                    
                                                                                                    
                                                                                                    
                                                                                                    
                                                                                                    
                                                                                                    
                                                                                                    
                                                                                                    
                                                                                                    
                                                                                                    
                                                                                                    
                                                                                                    
                                                                                                    
                                                                                                    
                                                                                                    
                                                                                                    
                                                                                                    
                                                                                                    
                           
<?xpacket end="w"?></metadata>
<defs>
    <style>
      .cls-1 {
        fill: #51bab6;
        fill-rule: evenodd;
      }
    </style>
  </defs>
  <path id="Icon-phone" class="cls-1" d="M173.614,1297.46a4.746,4.746,0,0,1-1.535-2.76,3.487,3.487,0,0,1,1.489-3.04,3.841,3.841,0,0,0,1.269-1.69,3.484,3.484,0,0,0-.42-2.74c-1.427-1.76-2.731-3.77-4.018-5.26a3.232,3.232,0,0,0-3.106-.86,5.544,5.544,0,0,0-2.155,1.45c-3.234,3.23-4.59,6.56-4.01,9.91s2.884,6.5,6.348,9.96c1.37,1.37,2.876,2.88,4.092,4.09,3.463,3.47,6.614,5.77,9.964,6.35s6.677-.78,9.91-4.01a5.5,5.5,0,0,0,1.443-2.15,3.212,3.212,0,0,0-.859-3.11c-1.491-1.29-3.492-2.59-5.26-4.02a3.49,3.49,0,0,0-2.74-.42,3.881,3.881,0,0,0-1.69,1.27,3.466,3.466,0,0,1-3.041,1.49,4.793,4.793,0,0,1-2.759-1.53m-7.918-16.69,3.626,4.74a1.145,1.145,0,0,1,.237.75,2.683,2.683,0,0,1-.566.62,6.178,6.178,0,0,0-2.3,5.13,6.994,6.994,0,0,0,2.247,4.28c1.068,1.06,1.885,1.88,2.923,2.92a7.039,7.039,0,0,0,4.274,2.25,6.2,6.2,0,0,0,5.133-2.31,2.7,2.7,0,0,1,.621-0.56,1.13,1.13,0,0,1,.749.24l4.74,3.62c0.339,0.35.292,0.35,0.22,0.59a3.851,3.851,0,0,1-.832,1.14c-1.893,1.9-5.029,4.03-7.726,3.32-2.482-.43-5.329-2.35-8.641-5.66-1.37-1.37-2.876-2.88-4.091-4.09-3.313-3.31-5.234-6.16-5.663-8.64-0.711-2.7,1.423-5.84,3.324-7.73a3.723,3.723,0,0,1,1.142-.83,0.472,0.472,0,0,1,.585.22h0Z" transform="translate(-161 -1281)"/>
</svg>
