<svg xmlns="http://www.w3.org/2000/svg" width="50.064" height="72" viewBox="0 0 25.032 36">
  <metadata><?xpacket begin="﻿" id="W5M0MpCehiHzreSzNTczkc9d"?>
<x:xmpmeta xmlns:x="adobe:ns:meta/" x:xmptk="Adobe XMP Core 5.6-c140 79.160451, 2017/05/06-01:08:21        ">
   <rdf:RDF xmlns:rdf="http://www.w3.org/1999/02/22-rdf-syntax-ns#">
      <rdf:Description rdf:about=""/>
   </rdf:RDF>
</x:xmpmeta>
                                                                                                    
                                                                                                    
                                                                                                    
                                                                                                    
                                                                                                    
                                                                                                    
                                                                                                    
                                                                                                    
                                                                                                    
                                                                                                    
                                                                                                    
                                                                                                    
                                                                                                    
                                                                                                    
                                                                                                    
                                                                                                    
                                                                                                    
                                                                                                    
                                                                                                    
                                                                                                    
                           
<?xpacket end="w"?></metadata>
<defs>
    <style>
      .cls-1 {
        fill: #51bab6;
        fill-rule: evenodd;
      }
    </style>
  </defs>
  <path id="icon-marker-location" class="cls-1" d="M172.937,1120.18a5.974,5.974,0,1,0,5.416,5.97v-0.02A5.71,5.71,0,0,0,172.937,1120.18Zm0,9.12a3.188,3.188,0,1,1,2.877-3.2v0.03a3.043,3.043,0,0,1-2.877,3.17h0Zm0-16.3c-6.563,0-12.056,5.75-12.506,13.09a15.1,15.1,0,0,0,2.648,9.39l8.842,12.96a1.2,1.2,0,0,0,1.777.29,1.308,1.308,0,0,0,.258-0.29l8.838-12.95a15.1,15.1,0,0,0,2.649-9.39C184.993,1118.75,179.5,1113,172.937,1113Zm7.822,20.83-7.822,11.44-7.822-11.44a12.144,12.144,0,0,1-2.148-7.54c0.316-5.15,4.132-10.5,9.973-10.5s9.651,5.33,9.967,10.49A12.166,12.166,0,0,1,180.759,1133.83Z" transform="translate(-160.406 -1113)"/>
</svg>
